<svg xmlns="http://www.w3.org/2000/svg" viewBox="0 0 240 234">
  <path d="M42.5,0H197.5C221.1,0,240,18.9,240,42.5v149.1c0,23.6-18.9,42.5-42.5,42.5H42.5C18.9,234,0,215.1,0,191.5V42.5
    C0,18.9,18.9,0,42.5,0z"/>
  <path fill="#ffffff" d="M98.9,139.9l17.1,42.8c0.3,0.8,0.6,1,1.4,1h25.5c1,0,1.1-0.3,0.8-1.4L121.8,96.5c-0.4-1.1-0.8-1.4-1.9-1.4H95.1
    c-0.8,0-1.1,0.6-0.8,1.4L98.9,139.9z M54.2,183.6h23.3c0.8,0,1.1-0.6,1.1-1.1V96.2c0-0.8-0.3-1.1-1.1-1.1H54.2c-0.8,0-1.1,0.6-1.1,1.1
    v86.3C53.1,183.1,53.4,183.6,54.2,183.6L54.2,183.6z M168.2,141.6c0,22.4,14.9,43.4,42.8,43.4c1.1,0,1.9,0,3.1-0.3
    c0.8,0,0.8-0.6,0.8-1.1v-19.4c0-0.8-0.3-1.1-1.1-0.8c-5.8,1.9-11,2.8-17.1,2.8c-15.4,0-23.8-11-23.8-24.9c0-13.2,7.5-24.6,23.8-24.6
    c5.8,0,11.3,0.8,17.1,3.1c0.5,0,1.1-0.3,1.1-0.8V99.3c0-0.8-0.3-1.1-0.8-1.4c-1.1-0.3-1.9-0.3-3.1-0.3
    C182.6,97.6,168.2,117.3,168.2,141.6L168.2,141.6z"/>
</svg> 