<svg xmlns="http://www.w3.org/2000/svg" viewBox="0 0 170 170">
  <path d="M150.37,130.25c-2.45,5.66-5.35,10.87-8.71,15.66-4.58,6.53-8.33,11.05-11.22,13.56-4.48,4.12-9.28,6.23-14.42,6.35-3.69,0-8.14-1.05-13.32-3.18-5.2-2.12-9.97-3.17-14.34-3.17-4.58,0-9.49,1.05-14.75,3.17-5.26,2.13-9.48,3.24-12.67,3.35-4.9,0.21-9.79-1.96-14.66-6.52-3.13-2.73-7.03-7.4-11.7-14.03-5.01-7.17-9.14-15.48-12.39-24.95-3.45-10.22-5.19-20.12-5.19-29.72,0-10.97,2.37-20.45,7.13-28.41,3.72-6.33,8.67-11.32,14.88-15,6.21-3.66,12.91-5.54,20.13-5.74,3.96,0,9.14,1.22,15.57,3.63s10.63,3.63,12.8,3.63c1.39,0,6.13-1.43,14.14-4.27,7.58-2.63,13.98-3.72,19.24-3.28,14.2,1.15,24.88,6.75,32,16.8-12.69,7.69-18.95,18.47-18.79,32.3,0.15,10.78,4.03,19.75,11.61,26.87,3.45,3.28,7.31,5.82,11.62,7.63C152.85,123.88,151.67,127.19,150.37,130.25Z M119.61,7.63c0,8.44-3.08,16.32-9.21,23.59-7.4,8.67-16.34,13.67-26.06,12.86-0.12-1-0.19-2.06-0.19-3.19,0-8.11,3.53-15.78,9.79-22.59,3.12-3.42,7.09-6.27,11.9-8.54,4.8-2.24,9.34-3.47,13.61-3.7C119.55,6.64,119.61,7.14,119.61,7.63Z"/>
</svg> 